<?xml version="1.0" standalone="no"?>
<!DOCTYPE svg PUBLIC "-//W3C//DTD SVG 20010904//EN"
 "http://www.w3.org/TR/2001/REC-SVG-20010904/DTD/svg10.dtd">
<svg version="1.0" xmlns="http://www.w3.org/2000/svg"
 width="490.000000pt" height="490.000000pt" viewBox="0 0 490.000000 490.000000"
 preserveAspectRatio="xMidYMid meet">
<metadata>
Created by potrace 1.14, written by Peter Selinger 2001-2017
</metadata>
<g transform="translate(0.000000,490.000000) scale(0.100000,-0.100000)"
fill="#000000" stroke="none">
<path d="M2034 4863 c-18 -18 -34 -39 -37 -48 -4 -8 -11 -15 -17 -15 -6 0 -8
-4 -5 -10 3 -5 1 -10 -5 -10 -6 0 -8 -4 -5 -10 3 -5 1 -10 -4 -10 -6 0 -11 -6
-11 -13 0 -8 -9 -24 -20 -37 -11 -13 -20 -29 -20 -37 0 -7 -5 -13 -11 -13 -5
0 -7 -4 -4 -10 3 -5 1 -10 -5 -10 -6 0 -8 -4 -5 -10 3 -5 1 -10 -4 -10 -6 0
-10 -3 -9 -7 2 -10 -31 -68 -57 -99 -26 -31 -38 -33 -220 -40 -182 -7 -210 -9
-256 -18 -37 -8 -123 -69 -112 -80 3 -3 2 -6 -4 -6 -6 0 -16 -13 -23 -30 -7
-16 -15 -30 -19 -30 -4 0 -13 -16 -20 -35 -7 -19 -16 -35 -21 -35 -4 0 -11
-11 -14 -24 -3 -14 -12 -31 -19 -38 -6 -7 -23 -34 -36 -60 -13 -26 -30 -49
-38 -52 -8 -3 -11 -11 -8 -16 4 -6 3 -9 -2 -8 -4 1 -17 -1 -28 -5 -12 -4 -106
-9 -210 -11 -210 -4 -224 -5 -244 -24 -7 -7 -20 -11 -27 -8 -8 3 -14 2 -14 -2
0 -4 -15 -23 -33 -42 -17 -20 -33 -42 -35 -50 -2 -8 -8 -16 -13 -18 -5 -2 -9
-10 -9 -18 0 -8 -4 -14 -10 -14 -5 0 -10 -6 -10 -14 0 -7 -9 -25 -21 -40 -11
-14 -17 -26 -12 -26 4 0 4 -4 -2 -8 -5 -4 -19 -25 -30 -46 -11 -22 -24 -45
-30 -51 -15 -17 -85 -149 -106 -200 -14 -34 -20 -215 -7 -215 4 0 8 -7 8 -15
0 -12 38 -86 70 -135 6 -8 18 -32 27 -52 10 -21 21 -38 26 -38 4 0 6 -4 3 -9
-3 -5 1 -11 9 -15 8 -3 15 -14 15 -25 0 -11 4 -22 9 -25 12 -8 7 -72 -7 -88
-6 -8 -9 -18 -5 -21 3 -4 -2 -9 -11 -13 -9 -3 -14 -10 -11 -14 3 -5 -1 -15 -9
-23 -8 -8 -12 -17 -9 -21 3 -3 -2 -8 -11 -12 -9 -3 -13 -10 -10 -15 3 -5 0 -9
-5 -9 -6 0 -10 -3 -9 -7 3 -13 -24 -63 -34 -63 -4 0 -8 -3 -7 -7 2 -14 -13
-53 -21 -53 -8 0 -22 -85 -23 -140 -1 -53 12 -109 36 -155 12 -22 20 -43 19
-47 -1 -5 2 -8 8 -8 5 0 10 -7 10 -15 0 -8 5 -15 11 -15 5 0 8 -4 5 -9 -3 -5
1 -12 9 -15 8 -3 14 -9 13 -13 -2 -4 8 -26 21 -48 14 -22 24 -43 23 -47 -1 -5
3 -8 9 -8 5 0 7 -4 4 -10 -3 -5 -2 -10 4 -10 8 0 8 -37 -2 -93 -2 -10 -11 -26
-19 -37 -9 -10 -14 -21 -11 -24 3 -3 -2 -8 -11 -12 -9 -3 -13 -10 -10 -15 3
-5 0 -9 -6 -9 -6 0 -9 -4 -6 -9 3 -5 -1 -14 -9 -21 -8 -7 -15 -18 -15 -24 0
-7 -6 -18 -12 -25 -7 -6 -13 -15 -13 -19 0 -4 -8 -18 -17 -32 -32 -48 -57
-217 -36 -246 4 -6 9 -23 10 -38 1 -15 8 -32 15 -38 7 -6 13 -14 13 -19 0 -5
12 -28 27 -52 36 -56 53 -87 47 -87 -3 0 2 -7 10 -16 9 -8 16 -22 16 -30 0 -8
5 -14 11 -14 5 0 7 -4 4 -10 -3 -5 -1 -10 5 -10 10 0 35 -48 32 -62 -1 -5 3
-8 8 -8 6 0 10 -5 10 -10 0 -6 9 -20 20 -32 11 -12 20 -30 20 -40 0 -10 5 -18
10 -18 6 0 10 -4 10 -9 0 -5 16 -25 35 -44 19 -19 35 -33 35 -31 0 3 13 -2 30
-11 16 -8 33 -15 37 -15 5 1 33 -2 63 -6 30 -4 122 -7 205 -7 132 1 153 -1
174 -18 13 -11 20 -19 15 -19 -5 0 -1 -5 8 -11 10 -5 18 -19 18 -30 0 -11 5
-17 10 -14 5 3 10 -3 10 -14 0 -12 5 -21 10 -21 6 0 10 -5 10 -11 0 -6 9 -24
21 -40 11 -16 18 -29 15 -29 -3 0 1 -8 9 -17 8 -10 14 -20 13 -23 -1 -3 13
-25 30 -49 18 -24 32 -48 32 -53 0 -14 40 -46 77 -62 47 -21 201 -37 364 -37
80 -1 111 -5 120 -15 6 -8 15 -11 20 -8 5 3 9 -4 9 -15 0 -10 4 -21 8 -23 10
-4 84 -128 76 -128 -3 0 1 -7 8 -15 30 -33 38 -45 32 -45 -4 0 0 -8 9 -18 10
-10 14 -22 10 -25 -3 -4 -1 -7 5 -7 6 0 14 -9 17 -21 8 -23 78 -91 103 -98 10
-3 176 -6 370 -8 264 -2 359 1 375 10 35 19 97 80 97 94 0 7 5 13 11 13 5 0 8
4 4 9 -3 5 2 17 11 25 8 9 12 16 7 16 -4 0 -1 6 7 13 9 7 29 38 44 70 16 31
33 57 38 57 4 0 7 3 6 8 -4 14 32 70 57 90 21 17 41 20 113 20 77 0 219 8 292
17 49 6 108 25 120 40 7 8 17 12 23 8 6 -3 7 -1 3 5 -4 6 2 17 14 24 11 7 20
18 20 24 0 6 7 17 15 24 8 7 13 16 10 20 -2 4 4 16 13 26 21 22 21 22 28 51 3
12 13 24 21 27 8 3 11 10 8 16 -3 5 -1 10 5 10 6 0 9 4 6 9 -3 5 1 14 9 21 8
7 15 19 15 26 0 8 5 14 10 14 6 0 10 6 10 14 0 8 13 28 30 44 l30 30 147 0
c82 0 175 3 208 7 33 4 68 8 78 8 9 1 17 5 17 9 0 4 5 8 12 8 17 0 78 43 78
55 0 6 11 22 24 37 14 14 22 29 19 32 -4 3 -1 6 6 6 7 0 9 5 6 10 -3 6 -1 10
4 10 6 0 11 6 11 14 0 7 7 19 15 26 9 7 13 15 10 18 -3 3 6 20 20 38 14 18 25
37 25 42 0 5 8 20 19 33 10 13 19 28 19 32 0 4 15 31 33 60 18 29 34 54 34 57
5 24 18 50 26 50 6 0 7 5 4 10 -4 6 -3 16 3 23 7 10 10 187 2 195 -1 1 -4 7
-5 12 -1 6 -4 13 -5 18 -1 4 -2 10 -1 15 0 4 -3 7 -8 7 -10 0 -27 39 -23 53 1
5 -2 6 -8 2 -9 -6 -14 7 -11 28 0 4 -4 7 -10 7 -5 0 -8 4 -5 9 3 5 -1 15 -10
22 -8 7 -21 26 -29 43 -8 17 -25 49 -38 71 -13 22 -22 49 -20 60 2 11 4 28 5
38 1 9 6 17 11 17 4 0 5 5 2 10 -3 6 -1 10 5 10 6 0 9 4 6 9 -3 4 3 16 14 26
11 10 20 23 20 30 0 6 8 20 18 31 9 11 18 26 20 34 2 8 9 22 16 30 13 16 28
47 48 95 6 17 12 70 13 119 1 77 -2 97 -24 140 -14 28 -25 54 -25 58 -1 4 -8
16 -17 27 -10 10 -20 28 -24 40 -3 12 -10 21 -15 21 -4 0 -11 11 -14 25 -4 14
-16 35 -27 46 -11 11 -17 24 -14 29 4 6 1 10 -5 10 -6 0 -8 5 -5 10 3 6 3 10
-2 10 -10 0 -11 56 0 66 4 4 7 16 7 26 0 11 4 17 8 14 5 -3 14 11 21 30 7 18
17 34 22 34 6 0 7 5 4 10 -3 6 -1 10 5 10 6 0 8 5 5 10 -3 6 -1 10 5 10 6 0 8
5 5 10 -3 6 0 13 9 16 9 3 12 12 9 21 -4 11 -2 14 5 9 7 -4 14 3 18 19 3 14
10 25 15 25 5 0 8 3 7 8 -1 7 3 21 21 67 11 27 6 184 -6 215 -6 14 -11 30 -13
35 -1 6 -9 18 -17 28 -9 9 -12 17 -7 17 5 0 1 5 -9 11 -9 6 -15 14 -12 20 4 5
2 9 -3 9 -5 0 -12 8 -16 18 -3 9 -22 44 -41 77 -20 33 -41 72 -48 88 -6 15
-14 27 -18 27 -4 0 -13 15 -20 33 -7 17 -21 41 -31 51 -9 10 -15 23 -12 28 3
4 -2 11 -10 14 -9 3 -16 11 -16 18 0 14 -78 66 -100 66 -9 0 -20 3 -24 7 -9 9
-25 10 -254 13 -101 1 -181 4 -179 7 3 2 -5 15 -17 28 -11 13 -32 45 -46 72
-14 26 -27 50 -30 53 -12 12 -40 60 -35 60 4 0 -1 7 -9 16 -9 8 -14 20 -11 25
4 5 2 9 -3 9 -5 0 -13 8 -16 18 -20 56 -95 126 -146 137 -47 11 -65 12 -202
15 -222 4 -284 18 -286 64 0 5 -7 13 -16 18 -9 5 -14 13 -11 19 4 5 1 9 -5 9
-6 0 -9 4 -6 9 3 4 -3 16 -14 26 -11 10 -17 22 -14 26 3 5 0 9 -6 9 -6 0 -9 4
-6 9 4 5 3 11 -1 13 -12 5 -59 80 -68 108 -4 13 -14 30 -21 38 -7 7 -19 21
-26 31 -7 10 -28 26 -46 35 -29 15 -72 17 -410 15 l-377 -3 -31 -33z"/>
</g>
</svg>
